<svg width="512" height="512" viewBox="0 0 24 24" fill="none" xmlns="http://www.w3.org/2000/svg">
  <path d="M12 2C6.48 2 2 6.48 2 12C2 17.52 6.48 22 12 22C17.52 22 22 17.52 22 12C22 6.48 17.52 2 12 2ZM15.5 8.5C15.5 9.33 14.83 10 14 10C13.17 10 12.5 9.33 12.5 8.5C12.5 7.67 13.17 7 14 7C14.83 7 15.5 7.67 15.5 8.5ZM8.5 15.5C8.5 16.33 7.83 17 7 17C6.17 17 5.5 16.33 5.5 15.5C5.5 14.67 6.17 14 7 14C7.83 14 8.5 14.67 8.5 15.5ZM12 17.5C10.5 17.5 9 17 7.5 16.5C7.3 16.4 7.1 16.2 6.9 16C6.7 15.8 6.5 15.6 6.3 15.4C5.7 14.7 5.2 13.9 4.9 13.1C4.6 12.3 4.5 11.5 4.5 10.7C4.5 8.6 6.1 7 8.2 7H15.8C17.9 7 19.5 8.6 19.5 10.7C19.5 11.5 19.4 12.3 19.1 13.1C18.8 13.9 18.3 14.7 17.7 15.4C17.5 15.6 17.3 15.8 17.1 16C16.9 16.2 16.7 16.4 16.5 16.5C15 17 13.5 17.5 12 17.5Z" fill="#4F46E5"/>
</svg>